<svg width="450" height="130" viewBox="0 0 450 130" fill="none" xmlns="http://www.w3.org/2000/svg">
<g clip-path="url(#clip0_10_21)">
<path d="M442 0.5H8C3.85786 0.5 0.5 3.85786 0.5 8V122C0.5 126.142 3.85786 129.5 8 129.5H442C446.142 129.5 449.5 126.142 449.5 122V8C449.5 3.85786 446.142 0.5 442 0.5Z" stroke="#A1A1AA"/>
<path d="M29.0568 32.1193C28.608 32.1165 28.1747 32.0412 27.7571 31.8935C27.3423 31.7457 26.9702 31.5057 26.6406 31.1733C26.3111 30.8409 26.0497 30.4006 25.8565 29.8523C25.6662 29.304 25.571 28.6307 25.571 27.8324C25.5739 27.0994 25.6577 26.4446 25.8224 25.8679C25.9901 25.2884 26.2287 24.7969 26.5384 24.3935C26.8509 23.9901 27.2244 23.6832 27.6591 23.473C28.0938 23.2599 28.581 23.1534 29.1207 23.1534C29.7031 23.1534 30.2173 23.267 30.6634 23.4943C31.1094 23.7187 31.4673 24.0241 31.7372 24.4105C32.0099 24.7969 32.1747 25.2301 32.2315 25.7102H30.4119C30.3409 25.4062 30.1918 25.1676 29.9645 24.9943C29.7372 24.821 29.456 24.7344 29.1207 24.7344C28.5526 24.7344 28.1207 24.9815 27.8253 25.4759C27.5327 25.9702 27.3835 26.642 27.3778 27.4915H27.4375C27.5682 27.233 27.7443 27.0128 27.9659 26.831C28.1903 26.6463 28.4446 26.5057 28.7287 26.4091C29.0156 26.3097 29.3182 26.2599 29.6364 26.2599C30.1534 26.2599 30.6136 26.3821 31.017 26.6264C31.4205 26.8679 31.7386 27.2003 31.9716 27.6236C32.2045 28.0469 32.321 28.5312 32.321 29.0767C32.321 29.6676 32.1832 30.1932 31.9077 30.6534C31.6349 31.1136 31.2528 31.4744 30.7614 31.7358C30.2727 31.9943 29.7045 32.1222 29.0568 32.1193ZM29.0483 30.6705C29.3324 30.6705 29.5866 30.6023 29.8111 30.4659C30.0355 30.3295 30.2116 30.1449 30.3395 29.9119C30.4673 29.679 30.5312 29.4176 30.5312 29.1278C30.5312 28.8381 30.4673 28.5781 30.3395 28.348C30.2145 28.1179 30.0412 27.9347 29.8196 27.7983C29.598 27.6619 29.3452 27.5938 29.0611 27.5938C28.848 27.5938 28.6506 27.6335 28.4688 27.7131C28.2898 27.7926 28.1321 27.9034 27.9957 28.0455C27.8622 28.1875 27.7571 28.3523 27.6804 28.5398C27.6037 28.7244 27.5653 28.9219 27.5653 29.1321C27.5653 29.4134 27.6293 29.6705 27.7571 29.9034C27.8878 30.1364 28.0639 30.3224 28.2855 30.4616C28.5099 30.6009 28.7642 30.6705 29.0483 30.6705ZM37.7244 27.696V29.1364H33.7443V27.696H37.7244ZM40.9162 30.1165L40.9205 27.9389H41.1847L43.2812 25.4545H45.3651L42.5483 28.7443H42.1179L40.9162 30.1165ZM39.2713 32V23.2727H41.0866V32H39.2713ZM43.3622 32L41.4361 29.1491L42.6463 27.8665L45.4886 32H43.3622ZM48.9691 32.1278C48.2958 32.1278 47.7163 31.9915 47.2305 31.7188C46.7475 31.4432 46.3754 31.054 46.114 30.5511C45.8526 30.0455 45.7219 29.4474 45.7219 28.7571C45.7219 28.0838 45.8526 27.4929 46.114 26.9844C46.3754 26.4759 46.7433 26.0795 47.2177 25.7955C47.695 25.5114 48.2546 25.3693 48.8967 25.3693C49.3285 25.3693 49.7305 25.4389 50.1026 25.5781C50.4776 25.7145 50.8043 25.9205 51.0827 26.196C51.364 26.4716 51.5827 26.8182 51.739 27.2358C51.8952 27.6506 51.9734 28.1364 51.9734 28.6932V29.1918H46.4464V28.0668H50.2646C50.2646 27.8054 50.2077 27.5739 50.0941 27.3722C49.9805 27.1705 49.8228 27.0128 49.6211 26.8991C49.4222 26.7827 49.1907 26.7244 48.9265 26.7244C48.6509 26.7244 48.4066 26.7884 48.1935 26.9162C47.9833 27.0412 47.8185 27.2102 47.6992 27.4233C47.5799 27.6335 47.5188 27.8679 47.516 28.1264V29.196C47.516 29.5199 47.5756 29.7997 47.695 30.0355C47.8171 30.2713 47.989 30.4531 48.2106 30.581C48.4322 30.7088 48.695 30.7727 48.9989 30.7727C49.2006 30.7727 49.3853 30.7443 49.5529 30.6875C49.7205 30.6307 49.864 30.5455 49.9833 30.4318C50.1026 30.3182 50.1935 30.179 50.256 30.0142L51.935 30.125C51.8498 30.5284 51.6751 30.8807 51.4109 31.1818C51.1495 31.4801 50.8114 31.7131 50.3967 31.8807C49.9847 32.0455 49.5089 32.1278 48.9691 32.1278ZM56.141 32.1278C55.4677 32.1278 54.8881 31.9915 54.4023 31.7188C53.9194 31.4432 53.5472 31.054 53.2859 30.5511C53.0245 30.0455 52.8938 29.4474 52.8938 28.7571C52.8938 28.0838 53.0245 27.4929 53.2859 26.9844C53.5472 26.4759 53.9151 26.0795 54.3896 25.7955C54.8668 25.5114 55.4265 25.3693 56.0685 25.3693C56.5004 25.3693 56.9023 25.4389 57.2745 25.5781C57.6495 25.7145 57.9762 25.9205 58.2546 26.196C58.5359 26.4716 58.7546 26.8182 58.9109 27.2358C59.0671 27.6506 59.1452 28.1364 59.1452 28.6932V29.1918H53.6183V28.0668H57.4364C57.4364 27.8054 57.3796 27.5739 57.266 27.3722C57.1523 27.1705 56.9947 27.0128 56.793 26.8991C56.5941 26.7827 56.3626 26.7244 56.0984 26.7244C55.8228 26.7244 55.5785 26.7884 55.3654 26.9162C55.1552 27.0412 54.9904 27.2102 54.8711 27.4233C54.7518 27.6335 54.6907 27.8679 54.6879 28.1264V29.196C54.6879 29.5199 54.7475 29.7997 54.8668 30.0355C54.989 30.2713 55.1609 30.4531 55.3825 30.581C55.604 30.7088 55.8668 30.7727 56.1708 30.7727C56.3725 30.7727 56.5572 30.7443 56.7248 30.6875C56.8924 30.6307 57.0359 30.5455 57.1552 30.4318C57.2745 30.3182 57.3654 30.179 57.4279 30.0142L59.1069 30.125C59.0217 30.5284 58.8469 30.8807 58.5827 31.1818C58.3214 31.4801 57.9833 31.7131 57.5685 31.8807C57.1566 32.0455 56.6808 32.1278 56.141 32.1278ZM60.3299 32V25.4545H62.06V26.6094H62.1367C62.2731 26.2259 62.5004 25.9233 62.8185 25.7017C63.1367 25.4801 63.5174 25.3693 63.9606 25.3693C64.4094 25.3693 64.7915 25.4815 65.1069 25.706C65.4222 25.9276 65.6325 26.2287 65.7376 26.6094H65.8058C65.9393 26.2344 66.1808 25.9347 66.5302 25.7102C66.8825 25.483 67.2987 25.3693 67.7788 25.3693C68.3896 25.3693 68.8853 25.5639 69.266 25.9531C69.6495 26.3395 69.8413 26.8878 69.8413 27.598V32H68.0302V27.956C68.0302 27.5923 67.9336 27.3196 67.7404 27.1378C67.5472 26.956 67.3058 26.8651 67.016 26.8651C66.6864 26.8651 66.4293 26.9702 66.2447 27.1804C66.06 27.3878 65.9677 27.6619 65.9677 28.0028V32H64.2077V27.9176C64.2077 27.5966 64.1154 27.3409 63.9308 27.1506C63.7489 26.9602 63.5089 26.8651 63.2106 26.8651C63.0089 26.8651 62.8271 26.9162 62.6651 27.0185C62.506 27.1179 62.3796 27.2585 62.2859 27.4403C62.1921 27.6193 62.1452 27.8295 62.1452 28.071V32H60.3299ZM75.3533 27.696V29.1364H71.3732V27.696H75.3533ZM79.3121 32.1065C78.815 32.1065 78.3647 31.9787 77.9613 31.723C77.5607 31.4645 77.2425 31.0852 77.0067 30.5852C76.7738 30.0824 76.6573 29.4659 76.6573 28.7358C76.6573 27.9858 76.7781 27.3622 77.0195 26.8651C77.261 26.3651 77.582 25.9915 77.9826 25.7443C78.386 25.4943 78.8278 25.3693 79.3079 25.3693C79.6744 25.3693 79.9798 25.4318 80.2241 25.5568C80.4712 25.679 80.6701 25.8324 80.8207 26.017C80.9741 26.1989 81.0906 26.3778 81.1701 26.554H81.2255V23.2727H83.0366V32H81.2468V30.9517H81.1701C81.0849 31.1335 80.9641 31.3139 80.8079 31.4929C80.6545 31.669 80.4542 31.8153 80.207 31.9318C79.9627 32.0483 79.6644 32.1065 79.3121 32.1065ZM79.8874 30.6619C80.18 30.6619 80.4272 30.5824 80.6289 30.4233C80.8335 30.2614 80.9897 30.0355 81.0977 29.7457C81.2085 29.456 81.2638 29.1165 81.2638 28.7273C81.2638 28.3381 81.2099 28 81.1019 27.7131C80.994 27.4261 80.8377 27.2045 80.6332 27.0483C80.4286 26.892 80.18 26.8139 79.8874 26.8139C79.5891 26.8139 79.3377 26.8949 79.1332 27.0568C78.9286 27.2187 78.7738 27.4432 78.6687 27.7301C78.5636 28.017 78.511 28.3494 78.511 28.7273C78.511 29.108 78.5636 29.4446 78.6687 29.7372C78.7766 30.027 78.9315 30.2543 79.1332 30.419C79.3377 30.581 79.5891 30.6619 79.8874 30.6619ZM87.5121 32.1278C86.8388 32.1278 86.2592 31.9915 85.7734 31.7188C85.2905 31.4432 84.9183 31.054 84.657 30.5511C84.3956 30.0455 84.2649 29.4474 84.2649 28.7571C84.2649 28.0838 84.3956 27.4929 84.657 26.9844C84.9183 26.4759 85.2862 26.0795 85.7607 25.7955C86.2379 25.5114 86.7976 25.3693 87.4396 25.3693C87.8714 25.3693 88.2734 25.4389 88.6456 25.5781C89.0206 25.7145 89.3473 25.9205 89.6257 26.196C89.907 26.4716 90.1257 26.8182 90.282 27.2358C90.4382 27.6506 90.5163 28.1364 90.5163 28.6932V29.1918H84.9893V28.0668H88.8075C88.8075 27.8054 88.7507 27.5739 88.6371 27.3722C88.5234 27.1705 88.3658 27.0128 88.1641 26.8991C87.9652 26.7827 87.7337 26.7244 87.4695 26.7244C87.1939 26.7244 86.9496 26.7884 86.7365 26.9162C86.5263 27.0412 86.3615 27.2102 86.2422 27.4233C86.1229 27.6335 86.0618 27.8679 86.0589 28.1264V29.196C86.0589 29.5199 86.1186 29.7997 86.2379 30.0355C86.3601 30.2713 86.532 30.4531 86.7536 30.581C86.9751 30.7088 87.2379 30.7727 87.5419 30.7727C87.7436 30.7727 87.9283 30.7443 88.0959 30.6875C88.2635 30.6307 88.407 30.5455 88.5263 30.4318C88.6456 30.3182 88.7365 30.179 88.799 30.0142L90.478 30.125C90.3928 30.5284 90.218 30.8807 89.9538 31.1818C89.6925 31.4801 89.3544 31.7131 88.9396 31.8807C88.5277 32.0455 88.0518 32.1278 87.5121 32.1278ZM97.6275 25.4545L95.3391 32H93.2937L91.0053 25.4545H92.9229L94.2823 30.1378H94.3505L95.7056 25.4545H97.6275Z" fill="#8D96A0"/>
<path d="M415.815 24.9015C416.287 23.7823 417.366 23.0002 418.621 23.0002C420.311 23.0002 421.528 24.4461 421.681 26.1694C421.681 26.1694 421.764 26.5971 421.582 27.3672C421.335 28.416 420.752 29.3478 419.968 30.059L415.815 33.7642L411.732 30.0588C410.947 29.3478 410.366 28.4158 410.118 27.367C409.936 26.5969 410.019 26.1691 410.019 26.1691C410.172 24.4459 411.389 23 413.079 23C414.334 23 415.343 23.7823 415.815 24.9015Z" fill="#F74731"/>
<path d="M32.6364 48.1094C32.5668 47.8674 32.469 47.6536 32.343 47.468C32.2171 47.2791 32.063 47.12 31.8807 46.9908C31.7017 46.8582 31.4962 46.7571 31.2642 46.6875C31.0355 46.6179 30.782 46.5831 30.5036 46.5831C29.9832 46.5831 29.5258 46.7124 29.1314 46.9709C28.7403 47.2294 28.4354 47.6056 28.2166 48.0994C27.9979 48.59 27.8885 49.1899 27.8885 49.8991C27.8885 50.6084 27.9962 51.2116 28.2116 51.7088C28.4271 52.206 28.732 52.5855 29.1264 52.8473C29.5208 53.1058 29.9865 53.2351 30.5234 53.2351C31.0107 53.2351 31.4266 53.1489 31.7713 52.9766C32.1193 52.8009 32.3845 52.554 32.5668 52.2358C32.7524 51.9176 32.8452 51.5414 32.8452 51.1072L33.2827 51.1719H30.6577V49.5511H34.9183V50.8338C34.9183 51.7287 34.7294 52.4976 34.3516 53.1406C33.9737 53.7803 33.4534 54.2741 32.7905 54.6222C32.1276 54.9669 31.3686 55.1392 30.5135 55.1392C29.5589 55.1392 28.7204 54.9287 27.9979 54.5078C27.2753 54.0836 26.7119 53.482 26.3075 52.7031C25.9065 51.9209 25.706 50.9929 25.706 49.919C25.706 49.0937 25.8253 48.358 26.0639 47.7116C26.3059 47.062 26.6439 46.5118 27.0781 46.0611C27.5123 45.6103 28.0178 45.2673 28.5945 45.032C29.1712 44.7966 29.7959 44.679 30.4688 44.679C31.0455 44.679 31.5824 44.7635 32.0795 44.9325C32.5767 45.0982 33.0175 45.3336 33.402 45.6385C33.7898 45.9434 34.1063 46.3063 34.3516 46.7273C34.5968 47.1449 34.7543 47.6056 34.8239 48.1094H32.6364ZM36.9741 55V47.3636H39.092V55H36.9741ZM38.038 46.3793C37.7231 46.3793 37.453 46.2749 37.2276 46.0661C37.0056 45.8539 36.8945 45.6004 36.8945 45.3054C36.8945 45.0137 37.0056 44.7635 37.2276 44.5547C37.453 44.3426 37.7231 44.2365 38.038 44.2365C38.3529 44.2365 38.6213 44.3426 38.8434 44.5547C39.0688 44.7635 39.1815 45.0137 39.1815 45.3054C39.1815 45.6004 39.0688 45.8539 38.8434 46.0661C38.6213 46.2749 38.3529 46.3793 38.038 46.3793ZM44.8503 47.3636V48.9545H40.2516V47.3636H44.8503ZM41.2956 45.5341H43.4135V52.6534C43.4135 52.849 43.4434 53.0014 43.503 53.1108C43.5627 53.2169 43.6455 53.2914 43.7516 53.3345C43.861 53.3776 43.9869 53.3991 44.1294 53.3991C44.2289 53.3991 44.3283 53.3909 44.4277 53.3743C44.5272 53.3544 44.6034 53.3395 44.6564 53.3295L44.9895 54.9055C44.8835 54.9387 44.7343 54.9768 44.5421 55.0199C44.3498 55.0663 44.1162 55.0945 43.8411 55.1044C43.3307 55.1243 42.8832 55.0563 42.4988 54.9006C42.1176 54.7448 41.821 54.5028 41.6088 54.1747C41.3967 53.8466 41.2923 53.4323 41.2956 52.9318V45.5341ZM48.5119 50.5852V55H46.394V44.8182H48.4522V48.7109H48.5417C48.7141 48.2602 48.9925 47.9072 49.377 47.652C49.7614 47.3935 50.2437 47.2642 50.8237 47.2642C51.354 47.2642 51.8163 47.3802 52.2108 47.6122C52.6085 47.8409 52.9167 48.1707 53.1355 48.6016C53.3575 49.0291 53.4669 49.5412 53.4636 50.1378V55H51.3457V50.5156C51.349 50.045 51.2297 49.6787 50.9877 49.4169C50.7491 49.1551 50.4144 49.0241 49.9835 49.0241C49.6951 49.0241 49.4399 49.0855 49.2179 49.2081C48.9991 49.3307 48.8268 49.5097 48.7008 49.745C48.5782 49.977 48.5152 50.2571 48.5119 50.5852ZM60.0273 51.7486V47.3636H62.1452V55H60.1119V53.6129H60.0323C59.86 54.0604 59.5733 54.42 59.1722 54.6918C58.7745 54.9635 58.2889 55.0994 57.7156 55.0994C57.2051 55.0994 56.756 54.9834 56.3683 54.7514C55.9805 54.5194 55.6772 54.1896 55.4585 53.7621C55.243 53.3345 55.1336 52.8224 55.1303 52.2259V47.3636H57.2482V51.848C57.2515 52.2988 57.3725 52.6551 57.6112 52.9169C57.8498 53.1787 58.1696 53.3097 58.5707 53.3097C58.8259 53.3097 59.0645 53.2517 59.2866 53.1357C59.5086 53.0163 59.6876 52.8407 59.8235 52.6087C59.9627 52.3767 60.0307 52.09 60.0273 51.7486ZM63.8791 55V44.8182H65.997V48.6463H66.0616C66.1544 48.4408 66.2886 48.232 66.4643 48.0199C66.6433 47.8045 66.8753 47.6255 67.1603 47.483C67.4487 47.3371 67.8066 47.2642 68.2342 47.2642C68.791 47.2642 69.3047 47.41 69.7754 47.7017C70.246 47.9901 70.6222 48.4259 70.9039 49.0092C71.1857 49.5893 71.3265 50.3168 71.3265 51.1918C71.3265 52.0436 71.189 52.7628 70.9139 53.3494C70.6421 53.9328 70.2709 54.3752 69.8002 54.6768C69.3329 54.9751 68.8092 55.1243 68.2292 55.1243C67.8182 55.1243 67.4686 55.0563 67.1802 54.9205C66.8952 54.7846 66.6615 54.6139 66.4792 54.4084C66.2969 54.1996 66.1577 53.9891 66.0616 53.777H65.9672V55H63.8791ZM65.9522 51.1818C65.9522 51.6359 66.0152 52.032 66.1412 52.37C66.2671 52.7081 66.4494 52.9716 66.688 53.1605C66.9267 53.3461 67.2167 53.4389 67.5581 53.4389C67.9028 53.4389 68.1944 53.3445 68.4331 53.1555C68.6717 52.9633 68.8523 52.6982 68.975 52.3601C69.1009 52.0187 69.1639 51.6259 69.1639 51.1818C69.1639 50.741 69.1026 50.3532 68.9799 50.0185C68.8573 49.6837 68.6767 49.4219 68.438 49.233C68.1994 49.044 67.9061 48.9496 67.5581 48.9496C67.2134 48.9496 66.9217 49.0407 66.6831 49.223C66.4477 49.4053 66.2671 49.6638 66.1412 49.9986C66.0152 50.3333 65.9522 50.7277 65.9522 51.1818ZM75.9799 55V47.3636H78.0332V48.696H78.1127C78.252 48.2221 78.4856 47.8641 78.8137 47.6222C79.1419 47.3769 79.5197 47.2543 79.9473 47.2543C80.0533 47.2543 80.1677 47.2609 80.2903 47.2741C80.4129 47.2874 80.5207 47.3056 80.6135 47.3288V49.2081C80.514 49.1783 80.3765 49.1518 80.2008 49.1286C80.0252 49.1054 79.8644 49.0938 79.7186 49.0938C79.407 49.0938 79.1286 49.1617 78.8833 49.2976C78.6414 49.4302 78.4492 49.6158 78.3066 49.8544C78.1674 50.093 78.0978 50.3681 78.0978 50.6797V55H75.9799ZM84.8331 55.1491C84.0476 55.1491 83.3714 54.9901 82.8047 54.6719C82.2412 54.3504 81.8071 53.8963 81.5021 53.3097C81.1972 52.7197 81.0447 52.022 81.0447 51.2166C81.0447 50.4311 81.1972 49.7417 81.5021 49.1484C81.8071 48.5552 82.2363 48.0928 82.7898 47.7614C83.3466 47.4299 83.9995 47.2642 84.7486 47.2642C85.2524 47.2642 85.7214 47.3454 86.1555 47.5078C86.593 47.6669 86.9742 47.9072 87.299 48.2287C87.6271 48.5502 87.8823 48.9545 88.0646 49.4418C88.2469 49.9257 88.3381 50.4924 88.3381 51.142V51.7237H81.8899V50.4112H86.3445C86.3445 50.1063 86.2782 49.8362 86.1456 49.6009C86.013 49.3655 85.8291 49.1816 85.5938 49.049C85.3617 48.9131 85.0916 48.8452 84.7834 48.8452C84.4619 48.8452 84.1768 48.9197 83.9283 49.0689C83.683 49.2147 83.4908 49.4119 83.3516 49.6605C83.2124 49.9058 83.1411 50.1792 83.1378 50.4808V51.7287C83.1378 52.1065 83.2074 52.433 83.3466 52.7081C83.4891 52.9832 83.6896 53.1953 83.9482 53.3445C84.2067 53.4936 84.5133 53.5682 84.8679 53.5682C85.1032 53.5682 85.3187 53.535 85.5142 53.4688C85.7098 53.4025 85.8771 53.303 86.0163 53.1705C86.1555 53.0379 86.2616 52.8755 86.3345 52.6832L88.2933 52.8125C88.1939 53.2831 87.9901 53.6941 87.6818 54.0455C87.3769 54.3935 86.9825 54.6652 86.4986 54.8608C86.018 55.053 85.4628 55.1491 84.8331 55.1491ZM91.8977 55.1442C91.4105 55.1442 90.9763 55.0597 90.5952 54.8906C90.214 54.7183 89.9124 54.4647 89.6903 54.13C89.4716 53.7919 89.3622 53.371 89.3622 52.8672C89.3622 52.4429 89.4401 52.0866 89.5959 51.7983C89.7517 51.5099 89.9638 51.2779 90.2322 51.1023C90.5007 50.9266 90.8056 50.794 91.147 50.7045C91.4917 50.6151 91.853 50.5521 92.2308 50.5156C92.675 50.4692 93.0329 50.4261 93.3047 50.3864C93.5765 50.3433 93.7737 50.2803 93.8963 50.1974C94.0189 50.1146 94.0803 49.992 94.0803 49.8295V49.7997C94.0803 49.4848 93.9808 49.2412 93.782 49.0689C93.5864 48.8965 93.308 48.8104 92.9467 48.8104C92.5656 48.8104 92.2623 48.8949 92.0369 49.0639C91.8116 49.2296 91.6624 49.4384 91.5895 49.6903L89.6307 49.5312C89.7301 49.0672 89.9257 48.6662 90.2173 48.3281C90.509 47.9867 90.8852 47.7249 91.3459 47.5426C91.8099 47.357 92.3468 47.2642 92.9567 47.2642C93.3809 47.2642 93.7869 47.3139 94.1747 47.4134C94.5658 47.5128 94.9122 47.6669 95.2138 47.8757C95.5187 48.0845 95.759 48.353 95.9347 48.6811C96.1103 49.0059 96.1982 49.3954 96.1982 49.8494V55H94.1896V53.9411H94.13C94.0073 54.1797 93.8433 54.3902 93.6378 54.5724C93.4323 54.7514 93.1854 54.8923 92.897 54.995C92.6087 55.0945 92.2756 55.1442 91.8977 55.1442ZM92.5043 53.6825C92.8158 53.6825 93.0909 53.6212 93.3295 53.4986C93.5682 53.3726 93.7554 53.2036 93.8913 52.9915C94.0272 52.7794 94.0952 52.5391 94.0952 52.2706V51.4602C94.0289 51.5033 93.9377 51.5431 93.8217 51.5795C93.709 51.6127 93.5814 51.6442 93.4389 51.674C93.2964 51.7005 93.1539 51.7254 93.0114 51.7486C92.8688 51.7685 92.7396 51.7867 92.6236 51.8033C92.375 51.8397 92.1579 51.8977 91.9723 51.9773C91.7867 52.0568 91.6425 52.1645 91.5398 52.3004C91.437 52.433 91.3857 52.5987 91.3857 52.7976C91.3857 53.0859 91.4901 53.3063 91.6989 53.4588C91.911 53.608 92.1795 53.6825 92.5043 53.6825ZM100.655 55.1243C100.075 55.1243 99.5498 54.9751 99.0792 54.6768C98.6119 54.3752 98.2406 53.9328 97.9656 53.3494C97.6938 52.7628 97.5579 52.0436 97.5579 51.1918C97.5579 50.3168 97.6987 49.5893 97.9805 49.0092C98.2622 48.4259 98.6367 47.9901 99.104 47.7017C99.5747 47.41 100.09 47.2642 100.65 47.2642C101.078 47.2642 101.434 47.3371 101.719 47.483C102.007 47.6255 102.239 47.8045 102.415 48.0199C102.594 48.232 102.73 48.4408 102.823 48.6463H102.887V44.8182H105V55H102.912V53.777H102.823C102.723 53.9891 102.583 54.1996 102.4 54.4084C102.221 54.6139 101.988 54.7846 101.699 54.9205C101.414 55.0563 101.066 55.1243 100.655 55.1243ZM101.326 53.4389C101.668 53.4389 101.956 53.3461 102.191 53.1605C102.43 52.9716 102.612 52.7081 102.738 52.37C102.868 52.032 102.932 51.6359 102.932 51.1818C102.932 50.7277 102.869 50.3333 102.743 49.9986C102.617 49.6638 102.435 49.4053 102.196 49.223C101.958 49.0407 101.668 48.9496 101.326 48.9496C100.978 48.9496 100.685 49.044 100.446 49.233C100.208 49.4219 100.027 49.6837 99.9045 50.0185C99.7818 50.3532 99.7205 50.741 99.7205 51.1818C99.7205 51.6259 99.7818 52.0187 99.9045 52.3601C100.03 52.6982 100.211 52.9633 100.446 53.1555C100.685 53.3445 100.978 53.4389 101.326 53.4389ZM106.742 55V47.3636H108.76V48.7109H108.85C109.009 48.2635 109.274 47.9105 109.645 47.652C110.016 47.3935 110.46 47.2642 110.977 47.2642C111.501 47.2642 111.947 47.3951 112.315 47.657C112.683 47.9155 112.928 48.2668 113.051 48.7109H113.13C113.286 48.2734 113.568 47.9238 113.975 47.6619C114.386 47.3968 114.872 47.2642 115.432 47.2642C116.145 47.2642 116.723 47.4912 117.167 47.9453C117.615 48.3961 117.838 49.0357 117.838 49.8643V55H115.725V50.282C115.725 49.8577 115.613 49.5395 115.387 49.3274C115.162 49.1153 114.88 49.0092 114.542 49.0092C114.158 49.0092 113.858 49.1319 113.642 49.3771C113.427 49.6191 113.319 49.9389 113.319 50.3366V55H111.266V50.2372C111.266 49.8627 111.158 49.5644 110.943 49.3423C110.731 49.1203 110.45 49.0092 110.102 49.0092C109.867 49.0092 109.655 49.0689 109.466 49.1882C109.28 49.3042 109.133 49.4683 109.024 49.6804C108.914 49.8892 108.86 50.1345 108.86 50.4162V55H106.742ZM122.991 55.1491C122.206 55.1491 121.53 54.9901 120.963 54.6719C120.399 54.3504 119.965 53.8963 119.66 53.3097C119.355 52.7197 119.203 52.022 119.203 51.2166C119.203 50.4311 119.355 49.7417 119.66 49.1484C119.965 48.5552 120.394 48.0928 120.948 47.7614C121.505 47.4299 122.158 47.2642 122.907 47.2642C123.411 47.2642 123.88 47.3454 124.314 47.5078C124.751 47.6669 125.132 47.9072 125.457 48.2287C125.785 48.5502 126.041 48.9545 126.223 49.4418C126.405 49.9257 126.496 50.4924 126.496 51.142V51.7237H120.048V50.4112H124.503C124.503 50.1063 124.436 49.8362 124.304 49.6009C124.171 49.3655 123.987 49.1816 123.752 49.049C123.52 48.9131 123.25 48.8452 122.942 48.8452C122.62 48.8452 122.335 48.9197 122.086 49.0689C121.841 49.2147 121.649 49.4119 121.51 49.6605C121.371 49.9058 121.299 50.1792 121.296 50.4808V51.7287C121.296 52.1065 121.366 52.433 121.505 52.7081C121.647 52.9832 121.848 53.1953 122.106 53.3445C122.365 53.4936 122.671 53.5682 123.026 53.5682C123.261 53.5682 123.477 53.535 123.672 53.4688C123.868 53.4025 124.035 53.303 124.175 53.1705C124.314 53.0379 124.42 52.8755 124.493 52.6832L126.452 52.8125C126.352 53.2831 126.148 53.6941 125.84 54.0455C125.535 54.3935 125.141 54.6652 124.657 54.8608C124.176 55.053 123.621 55.1491 122.991 55.1491ZM131.197 44.43H132.947V47.342H134.599V44.43H136.321V53.18H131.197V44.43ZM132.947 48.798V51.696H134.599V48.798H132.947ZM140.199 43.282H141.977V56.246H140.199V43.282ZM138.603 48.224H140.759V49.722H138.603V48.224ZM137.357 43.478H139.107V55.658H137.357V43.478ZM146.834 45.326H148.318V46.782C148.318 49.778 147.1 52.704 144.664 53.81L143.614 52.34C145.784 51.374 146.834 48.98 146.834 46.782V45.326ZM147.254 45.326H148.724V46.782C148.724 48.882 149.76 51.122 151.93 52.018L150.922 53.488C148.458 52.424 147.254 49.666 147.254 46.782V45.326ZM144.132 44.528H151.398V46.054H144.132V44.528ZM152.602 43.282H154.478V56.246H152.602V43.282ZM160.209 44.346H166.383V50.604H160.209V44.346ZM164.549 45.816H162.043V49.134H164.549V45.816ZM168.175 43.282H170.037V52.732H168.175V43.282ZM169.505 47.02H171.759V48.546H169.505V47.02ZM161.679 54.538H170.499V56.022H161.679V54.538ZM161.679 51.808H163.541V55.28H161.679V51.808ZM172.724 48.308H184.456V49.778H172.724V48.308ZM174.166 46.152H183.07V47.608H174.166V46.152ZM174.166 43.52H182.958V45.004H176.014V47.412H174.166V43.52ZM174.054 50.506H183.014V53.936H175.902V55.056H174.068V52.62H181.18V51.906H174.054V50.506ZM174.068 54.72H183.35V56.148H174.068V54.72ZM194.521 43.282H196.397V56.246H194.521V43.282ZM190.699 44.626H192.547C192.547 48.588 191.203 51.836 186.597 54.062L185.631 52.578C189.355 50.786 190.699 48.434 190.699 44.962V44.626ZM186.317 44.626H191.581V46.096H186.317V44.626Z" fill="#8D96A0"/>
<path d="M32.9773 69.2727V78H31.9545L27.1989 71.1477H27.1136V78H26.0568V69.2727H27.0795L31.8523 76.142H31.9375V69.2727H32.9773ZM37.6999 78.1364C37.0692 78.1364 36.5252 77.9972 36.0678 77.7188C35.6133 77.4375 35.2624 77.0455 35.0153 76.5426C34.771 76.0369 34.6488 75.4489 34.6488 74.7784C34.6488 74.108 34.771 73.517 35.0153 73.0057C35.2624 72.4915 35.6062 72.0909 36.0465 71.804C36.4897 71.5142 37.0067 71.3693 37.5977 71.3693C37.9386 71.3693 38.2752 71.4261 38.6076 71.5398C38.94 71.6534 39.2425 71.8381 39.5153 72.0938C39.788 72.3466 40.0053 72.6818 40.1673 73.0994C40.3292 73.517 40.4102 74.0312 40.4102 74.642V75.0682H35.3647V74.1989H39.3874C39.3874 73.8295 39.3136 73.5 39.1658 73.2102C39.021 72.9205 38.8136 72.6918 38.5437 72.5241C38.2766 72.3565 37.9613 72.2727 37.5977 72.2727C37.1971 72.2727 36.8505 72.3722 36.5579 72.571C36.2681 72.767 36.0451 73.0227 35.8888 73.3381C35.7326 73.6534 35.6545 73.9915 35.6545 74.3523V74.9318C35.6545 75.4261 35.7397 75.8452 35.9102 76.1889C36.0835 76.5298 36.3235 76.7898 36.6303 76.9688C36.9371 77.1449 37.2937 77.233 37.6999 77.233C37.9641 77.233 38.2028 77.196 38.4158 77.1222C38.6317 77.0455 38.8178 76.9318 38.9741 76.7812C39.1303 76.6278 39.2511 76.4375 39.3363 76.2102L40.3079 76.483C40.2056 76.8125 40.0337 77.1023 39.7923 77.3523C39.5508 77.5994 39.2525 77.7926 38.8974 77.9318C38.5423 78.0682 38.1431 78.1364 37.6999 78.1364ZM42.5142 71.4545L44.0824 74.1307L45.6506 71.4545H46.8097L44.696 74.7273L46.8097 78H45.6506L44.0824 75.4602L42.5142 78H41.3551L43.4347 74.7273L41.3551 71.4545H42.5142ZM51.0913 71.4545V72.3068H47.6992V71.4545H51.0913ZM48.6879 69.8864H49.6935V76.125C49.6935 76.4091 49.7347 76.6222 49.8171 76.7642C49.9023 76.9034 50.0103 76.9972 50.141 77.0455C50.2745 77.0909 50.4151 77.1136 50.5629 77.1136C50.6737 77.1136 50.7646 77.108 50.8356 77.0966C50.9066 77.0824 50.9634 77.071 51.006 77.0625L51.2106 77.9659C51.1424 77.9915 51.0472 78.017 50.9251 78.0426C50.8029 78.071 50.6481 78.0852 50.4606 78.0852C50.1765 78.0852 49.8981 78.0241 49.6254 77.902C49.3555 77.7798 49.131 77.5938 48.9521 77.3438C48.7759 77.0938 48.6879 76.7784 48.6879 76.3977V69.8864ZM53.337 78.0682C53.1268 78.0682 52.9464 77.9929 52.7958 77.8423C52.6452 77.6918 52.57 77.5114 52.57 77.3011C52.57 77.0909 52.6452 76.9105 52.7958 76.7599C52.9464 76.6094 53.1268 76.5341 53.337 76.5341C53.5472 76.5341 53.7276 76.6094 53.8782 76.7599C54.0288 76.9105 54.104 77.0909 54.104 77.3011C54.104 77.4403 54.0685 77.5682 53.9975 77.6847C53.9293 77.8011 53.837 77.8949 53.7205 77.9659C53.6069 78.0341 53.479 78.0682 53.337 78.0682ZM55.9087 71.4545H56.9144V78.4773C56.9144 78.8807 56.8448 79.2301 56.7056 79.5256C56.5692 79.821 56.3619 80.0497 56.0835 80.2116C55.8079 80.3736 55.4599 80.4545 55.0394 80.4545C55.0053 80.4545 54.9712 80.4545 54.9371 80.4545C54.9031 80.4545 54.869 80.4545 54.8349 80.4545V79.517C54.869 79.517 54.9002 79.517 54.9286 79.517C54.957 79.517 54.9883 79.517 55.0224 79.517C55.3292 79.517 55.5536 79.4261 55.6957 79.2443C55.8377 79.0653 55.9087 78.8097 55.9087 78.4773V71.4545ZM56.4031 70.3636C56.207 70.3636 56.038 70.2969 55.896 70.1634C55.7567 70.0298 55.6871 69.8693 55.6871 69.6818C55.6871 69.4943 55.7567 69.3338 55.896 69.2003C56.038 69.0668 56.207 69 56.4031 69C56.5991 69 56.7667 69.0668 56.9059 69.2003C57.0479 69.3338 57.119 69.4943 57.119 69.6818C57.119 69.8693 57.0479 70.0298 56.9059 70.1634C56.7667 70.2969 56.5991 70.3636 56.4031 70.3636ZM63.3928 72.9205L62.4893 73.1761C62.4325 73.0256 62.3487 72.8793 62.2379 72.7372C62.13 72.5923 61.9822 72.473 61.7947 72.3793C61.6072 72.2855 61.3672 72.2386 61.0746 72.2386C60.674 72.2386 60.3402 72.331 60.0732 72.5156C59.8089 72.6974 59.6768 72.929 59.6768 73.2102C59.6768 73.4602 59.7678 73.6577 59.9496 73.8026C60.1314 73.9474 60.4155 74.0682 60.8018 74.1648L61.7734 74.4034C62.3587 74.5455 62.7947 74.7628 63.0817 75.0554C63.3686 75.3452 63.5121 75.7187 63.5121 76.1761C63.5121 76.5511 63.4041 76.8864 63.1882 77.1818C62.9751 77.4773 62.6768 77.7102 62.2933 77.8807C61.9098 78.0511 61.4638 78.1364 60.9553 78.1364C60.2876 78.1364 59.7351 77.9915 59.2976 77.7017C58.8601 77.4119 58.5831 76.9886 58.4666 76.4318L59.4212 76.1932C59.5121 76.5455 59.6839 76.8097 59.9368 76.9858C60.1925 77.1619 60.5263 77.25 60.9382 77.25C61.407 77.25 61.7791 77.1506 62.0547 76.9517C62.3331 76.75 62.4723 76.5085 62.4723 76.2273C62.4723 76 62.3928 75.8097 62.2337 75.6562C62.0746 75.5 61.8303 75.3835 61.5007 75.3068L60.4098 75.0511C59.8104 74.9091 59.37 74.6889 59.0888 74.3906C58.8104 74.0895 58.6712 73.7131 58.6712 73.2614C58.6712 72.892 58.7749 72.5653 58.9822 72.2812C59.1925 71.9972 59.478 71.7741 59.8388 71.6122C60.2024 71.4503 60.6143 71.3693 61.0746 71.3693C61.7223 71.3693 62.2308 71.5114 62.6001 71.7955C62.9723 72.0795 63.2365 72.4545 63.3928 72.9205ZM69.3765 68.28H70.3605V69.288H75.6045V68.28H76.6005V71.856H69.3765V68.28ZM70.3605 70.056V71.088H75.6045V70.056H70.3605ZM68.0685 72.768H77.8725V73.572H68.0685V72.768ZM69.2565 74.556H76.6245V76.98H70.2645V78.312H69.2805V76.26H75.6405V75.312H69.2565V74.556ZM69.2805 78.048H76.9485V78.816H69.2805V78.048ZM79.1195 76.776H88.9475V77.604H79.1195V76.776ZM83.5115 74.448H84.5075V77.124H83.5115V74.448ZM80.3075 68.892H87.7355V72.18H81.3275V74.352H80.3435V71.376H86.7515V69.696H80.3075V68.892ZM80.3435 73.932H87.9875V74.748H80.3435V73.932ZM91.2146 69.24H98.1986V70.044H91.2146V69.24ZM90.1586 76.524H99.9626V77.352H90.1586V76.524ZM97.6706 69.24H98.6426V70.32C98.6426 71.712 98.6426 73.26 98.2346 75.6L97.2386 75.504C97.6706 73.284 97.6706 71.664 97.6706 70.32V69.24ZM104.714 68.868C106.406 68.868 107.618 69.912 107.618 71.424C107.618 72.948 106.406 73.992 104.714 73.992C103.022 73.992 101.798 72.948 101.798 71.424C101.798 69.912 103.022 68.868 104.714 68.868ZM104.714 69.732C103.586 69.732 102.77 70.416 102.77 71.424C102.77 72.432 103.586 73.128 104.714 73.128C105.83 73.128 106.646 72.432 106.646 71.424C106.646 70.416 105.83 69.732 104.714 69.732ZM109.034 68.076H110.03V78.948H109.034V68.076ZM101.39 76.572L101.246 75.744C103.226 75.744 105.962 75.732 108.326 75.36L108.41 76.092C105.974 76.56 103.322 76.572 101.39 76.572ZM118.708 73.824H119.716V76.176H118.708V73.824ZM118.708 70.008H119.512V70.248C119.512 72.144 118.276 73.608 116.452 74.184L115.996 73.404C117.604 72.924 118.708 71.712 118.708 70.248V70.008ZM118.9 70.008H119.704V70.248C119.704 71.652 120.844 72.828 122.44 73.296L121.984 74.064C120.16 73.524 118.9 72.084 118.9 70.248V70.008ZM116.248 69.504H122.212V70.308H116.248V69.504ZM118.708 68.16H119.716V69.852H118.708V68.16ZM123.448 68.076H124.444V78.948H123.448V68.076ZM115.804 76.716L115.66 75.876C117.64 75.876 120.376 75.864 122.74 75.504L122.824 76.236C120.388 76.692 117.736 76.704 115.804 76.716ZM134.535 68.1H135.543V76.044H134.535V68.1ZM128.571 77.88H135.867V78.696H128.571V77.88ZM128.571 75.312H129.555V78.264H128.571V75.312ZM129.471 68.688H130.299V69.792C130.299 71.904 129.099 73.752 127.275 74.496L126.759 73.692C128.391 73.056 129.471 71.472 129.471 69.792V68.688ZM129.651 68.688H130.467V69.792C130.467 71.424 131.559 72.9 133.179 73.488L132.651 74.292C130.851 73.596 129.651 71.856 129.651 69.792V68.688ZM138.938 68.544H145.922V69.348H138.938V68.544ZM137.69 72.12H147.518V72.936H137.69V72.12ZM145.274 68.544H146.246V69.24C146.246 70.02 146.246 71.028 145.958 72.372L144.986 72.264C145.274 70.944 145.274 70.008 145.274 69.24V68.544ZM138.842 74.004H146.282V76.764H139.862V78.276H138.866V75.996H145.298V74.808H138.842V74.004ZM138.866 78.012H146.558V78.816H138.866V78.012ZM153.625 68.268C156.013 68.268 157.441 68.94 157.441 70.152C157.441 71.364 156.013 72.036 153.625 72.036C151.225 72.036 149.809 71.364 149.809 70.152C149.809 68.94 151.225 68.268 153.625 68.268ZM153.625 69.024C151.849 69.024 150.829 69.432 150.829 70.152C150.829 70.872 151.849 71.28 153.625 71.28C155.389 71.28 156.409 70.872 156.409 70.152C156.409 69.432 155.389 69.024 153.625 69.024ZM148.717 72.756H158.521V73.56H148.717V72.756ZM149.905 74.484H157.273V76.932H150.913V78.252H149.929V76.212H156.289V75.252H149.905V74.484ZM149.929 78.036H157.597V78.816H149.929V78.036ZM169.566 72C169.472 71.7131 169.348 71.456 169.195 71.2287C169.044 70.9986 168.864 70.8026 168.654 70.6406C168.446 70.4787 168.211 70.3551 167.946 70.2699C167.682 70.1847 167.392 70.142 167.077 70.142C166.56 70.142 166.09 70.2756 165.667 70.5426C165.243 70.8097 164.907 71.2031 164.657 71.723C164.407 72.2429 164.282 72.8807 164.282 73.6364C164.282 74.392 164.408 75.0298 164.661 75.5497C164.914 76.0696 165.256 76.4631 165.688 76.7301C166.12 76.9972 166.605 77.1307 167.145 77.1307C167.645 77.1307 168.086 77.0241 168.466 76.8111C168.85 76.5952 169.148 76.2912 169.361 75.8991C169.577 75.5043 169.685 75.0398 169.685 74.5057L170.009 74.5739H167.384V73.6364H170.708V74.5739C170.708 75.2926 170.554 75.9176 170.248 76.4489C169.944 76.9801 169.523 77.392 168.986 77.6847C168.452 77.9744 167.838 78.1193 167.145 78.1193C166.373 78.1193 165.694 77.9375 165.108 77.5739C164.526 77.2102 164.071 76.6932 163.745 76.0227C163.421 75.3523 163.259 74.5568 163.259 73.6364C163.259 72.946 163.351 72.3253 163.536 71.7741C163.723 71.2202 163.988 70.7486 164.328 70.3594C164.669 69.9702 165.073 69.6719 165.539 69.4645C166.005 69.2571 166.517 69.1534 167.077 69.1534C167.537 69.1534 167.966 69.223 168.364 69.3622C168.765 69.4986 169.121 69.6932 169.434 69.946C169.749 70.196 170.012 70.4957 170.222 70.8452C170.432 71.1918 170.577 71.5767 170.657 72H169.566ZM172.792 78V71.4545H173.797V78H172.792ZM173.303 70.3636C173.107 70.3636 172.938 70.2969 172.796 70.1634C172.657 70.0298 172.587 69.8693 172.587 69.6818C172.587 69.4943 172.657 69.3338 172.796 69.2003C172.938 69.0668 173.107 69 173.303 69C173.499 69 173.667 69.0668 173.806 69.2003C173.948 69.3338 174.019 69.4943 174.019 69.6818C174.019 69.8693 173.948 70.0298 173.806 70.1634C173.667 70.2969 173.499 70.3636 173.303 70.3636ZM178.486 71.4545V72.3068H175.094V71.4545H178.486ZM176.082 69.8864H177.088V76.125C177.088 76.4091 177.129 76.6222 177.212 76.7642C177.297 76.9034 177.405 76.9972 177.536 77.0455C177.669 77.0909 177.81 77.1136 177.957 77.1136C178.068 77.1136 178.159 77.108 178.23 77.0966C178.301 77.0824 178.358 77.071 178.401 77.0625L178.605 77.9659C178.537 77.9915 178.442 78.017 178.32 78.0426C178.197 78.071 178.043 78.0852 177.855 78.0852C177.571 78.0852 177.293 78.0241 177.02 77.902C176.75 77.7798 176.526 77.5938 176.347 77.3438C176.17 77.0938 176.082 76.7784 176.082 76.3977V69.8864ZM181.145 74.0625V78H180.139V69.2727H181.145V72.4773H181.23C181.384 72.1392 181.614 71.8707 181.92 71.6719C182.23 71.4702 182.642 71.3693 183.156 71.3693C183.602 71.3693 183.993 71.4588 184.328 71.6378C184.663 71.8139 184.923 72.0852 185.108 72.4517C185.295 72.8153 185.389 73.2784 185.389 73.8409V78H184.384V73.9091C184.384 73.3892 184.249 72.9872 183.979 72.7031C183.712 72.4162 183.341 72.2727 182.866 72.2727C182.537 72.2727 182.241 72.3423 181.98 72.4815C181.722 72.6207 181.517 72.8239 181.366 73.0909C181.219 73.358 181.145 73.6818 181.145 74.0625ZM191.354 75.3239V71.4545H192.36V78H191.354V76.892H191.286C191.132 77.2244 190.894 77.5071 190.57 77.7401C190.246 77.9702 189.837 78.0852 189.343 78.0852C188.934 78.0852 188.57 77.9957 188.252 77.8168C187.934 77.6349 187.684 77.3622 187.502 76.9986C187.32 76.6321 187.229 76.1705 187.229 75.6136V71.4545H188.235V75.5455C188.235 76.0227 188.368 76.4034 188.635 76.6875C188.905 76.9716 189.249 77.1136 189.667 77.1136C189.917 77.1136 190.171 77.0497 190.429 76.9219C190.691 76.794 190.909 76.598 191.086 76.3338C191.265 76.0696 191.354 75.733 191.354 75.3239ZM194.338 78V69.2727H195.344V72.4943H195.429C195.503 72.3807 195.605 72.2358 195.736 72.0597C195.869 71.8807 196.06 71.7216 196.307 71.5824C196.557 71.4403 196.895 71.3693 197.321 71.3693C197.872 71.3693 198.358 71.5071 198.778 71.7827C199.199 72.0582 199.527 72.4489 199.763 72.9545C199.999 73.4602 200.116 74.0568 200.116 74.7443C200.116 75.4375 199.999 76.0384 199.763 76.5469C199.527 77.0526 199.2 77.4446 198.783 77.723C198.365 77.9986 197.884 78.1364 197.338 78.1364C196.918 78.1364 196.581 78.0668 196.328 77.9276C196.075 77.7855 195.881 77.625 195.744 77.446C195.608 77.2642 195.503 77.1136 195.429 76.9943H195.31V78H194.338ZM195.327 74.7273C195.327 75.2216 195.399 75.6577 195.544 76.0355C195.689 76.4105 195.901 76.7045 196.179 76.9176C196.457 77.1278 196.798 77.233 197.202 77.233C197.622 77.233 197.973 77.1222 198.254 76.9006C198.538 76.6761 198.751 76.375 198.893 75.9972C199.038 75.6165 199.111 75.1932 199.111 74.7273C199.111 74.267 199.04 73.8523 198.898 73.483C198.759 73.1108 198.547 72.8168 198.263 72.6009C197.982 72.3821 197.628 72.2727 197.202 72.2727C196.793 72.2727 196.449 72.3764 196.17 72.5838C195.892 72.7884 195.682 73.0753 195.54 73.4446C195.398 73.8111 195.327 74.2386 195.327 74.7273ZM205.166 78V69.2727H208.115C208.797 69.2727 209.357 69.3892 209.794 69.6222C210.232 69.8523 210.555 70.169 210.766 70.5724C210.976 70.9759 211.081 71.4347 211.081 71.9489C211.081 72.4631 210.976 72.919 210.766 73.3168C210.555 73.7145 210.233 74.027 209.798 74.2543C209.364 74.4787 208.808 74.5909 208.132 74.5909H205.746V73.6364H208.098C208.564 73.6364 208.939 73.5682 209.223 73.4318C209.51 73.2955 209.717 73.1023 209.845 72.8523C209.976 72.5994 210.041 72.2983 210.041 71.9489C210.041 71.5994 209.976 71.294 209.845 71.0327C209.714 70.7713 209.506 70.5696 209.219 70.4276C208.932 70.2827 208.553 70.2102 208.081 70.2102H206.223V78H205.166ZM209.274 74.0795L211.422 78H210.195L208.081 74.0795H209.274ZM215.38 78.1364C214.749 78.1364 214.205 77.9972 213.748 77.7188C213.293 77.4375 212.942 77.0455 212.695 76.5426C212.451 76.0369 212.328 75.4489 212.328 74.7784C212.328 74.108 212.451 73.517 212.695 73.0057C212.942 72.4915 213.286 72.0909 213.726 71.804C214.169 71.5142 214.686 71.3693 215.277 71.3693C215.618 71.3693 215.955 71.4261 216.287 71.5398C216.62 71.6534 216.922 71.8381 217.195 72.0938C217.468 72.3466 217.685 72.6818 217.847 73.0994C218.009 73.517 218.09 74.0312 218.09 74.642V75.0682H213.044V74.1989H217.067C217.067 73.8295 216.993 73.5 216.846 73.2102C216.701 72.9205 216.493 72.6918 216.223 72.5241C215.956 72.3565 215.641 72.2727 215.277 72.2727C214.877 72.2727 214.53 72.3722 214.238 72.571C213.948 72.767 213.725 73.0227 213.569 73.3381C213.412 73.6534 213.334 73.9915 213.334 74.3523V74.9318C213.334 75.4261 213.419 75.8452 213.59 76.1889C213.763 76.5298 214.003 76.7898 214.31 76.9688C214.617 77.1449 214.973 77.233 215.38 77.233C215.644 77.233 215.882 77.196 216.096 77.1222C216.311 77.0455 216.498 76.9318 216.654 76.7812C216.81 76.6278 216.931 76.4375 217.016 76.2102L217.988 76.483C217.885 76.8125 217.713 77.1023 217.472 77.3523C217.23 77.5994 216.932 77.7926 216.577 77.9318C216.222 78.0682 215.823 78.1364 215.38 78.1364ZM221.546 78.1534C221.131 78.1534 220.755 78.0753 220.417 77.919C220.078 77.7599 219.81 77.5312 219.611 77.233C219.412 76.9318 219.313 76.5682 219.313 76.142C219.313 75.767 219.387 75.4631 219.534 75.2301C219.682 74.9943 219.88 74.8097 220.127 74.6761C220.374 74.5426 220.647 74.4432 220.945 74.3778C221.246 74.3097 221.549 74.2557 221.853 74.2159C222.25 74.1648 222.573 74.1264 222.82 74.1009C223.07 74.0724 223.252 74.0256 223.365 73.9602C223.482 73.8949 223.54 73.7812 223.54 73.6193V73.5852C223.54 73.1648 223.425 72.8381 223.195 72.6051C222.968 72.3722 222.623 72.2557 222.159 72.2557C221.679 72.2557 221.303 72.3608 221.03 72.571C220.757 72.7812 220.566 73.0057 220.455 73.2443L219.5 72.9034C219.671 72.5057 219.898 72.196 220.182 71.9744C220.469 71.75 220.782 71.5937 221.12 71.5057C221.461 71.4148 221.796 71.3693 222.125 71.3693C222.336 71.3693 222.577 71.3949 222.85 71.446C223.125 71.4943 223.391 71.5952 223.647 71.7486C223.905 71.902 224.12 72.1335 224.29 72.4432C224.461 72.7528 224.546 73.1676 224.546 73.6875V78H223.54V77.1136H223.489C223.421 77.2557 223.307 77.4077 223.148 77.5696C222.989 77.7315 222.777 77.8693 222.513 77.983C222.249 78.0966 221.926 78.1534 221.546 78.1534ZM221.699 77.25C222.097 77.25 222.432 77.1719 222.705 77.0156C222.98 76.8594 223.188 76.6577 223.327 76.4105C223.469 76.1634 223.54 75.9034 223.54 75.6307V74.7102C223.498 74.7614 223.404 74.8082 223.259 74.8509C223.117 74.8906 222.952 74.9261 222.765 74.9574C222.58 74.9858 222.4 75.0114 222.223 75.0341C222.05 75.054 221.909 75.071 221.801 75.0852C221.54 75.1193 221.296 75.1747 221.069 75.2514C220.844 75.3253 220.662 75.4375 220.523 75.5881C220.387 75.7358 220.319 75.9375 220.319 76.1932C220.319 76.5426 220.448 76.8068 220.706 76.9858C220.968 77.1619 221.299 77.25 221.699 77.25ZM228.853 78.1364C228.308 78.1364 227.826 77.9986 227.408 77.723C226.991 77.4446 226.664 77.0526 226.428 76.5469C226.192 76.0384 226.075 75.4375 226.075 74.7443C226.075 74.0568 226.192 73.4602 226.428 72.9545C226.664 72.4489 226.992 72.0582 227.413 71.7827C227.833 71.5071 228.319 71.3693 228.87 71.3693C229.296 71.3693 229.633 71.4403 229.88 71.5824C230.13 71.7216 230.32 71.8807 230.451 72.0597C230.585 72.2358 230.688 72.3807 230.762 72.4943H230.847V69.2727H231.853V78H230.881V76.9943H230.762C230.688 77.1136 230.583 77.2642 230.447 77.446C230.31 77.625 230.116 77.7855 229.863 77.9276C229.61 78.0668 229.273 78.1364 228.853 78.1364ZM228.989 77.233C229.393 77.233 229.734 77.1278 230.012 76.9176C230.29 76.7045 230.502 76.4105 230.647 76.0355C230.792 75.6577 230.864 75.2216 230.864 74.7273C230.864 74.2386 230.793 73.8111 230.651 73.4446C230.509 73.0753 230.299 72.7884 230.021 72.5838C229.742 72.3764 229.398 72.2727 228.989 72.2727C228.563 72.2727 228.208 72.3821 227.924 72.6009C227.643 72.8168 227.431 73.1108 227.289 73.483C227.15 73.8523 227.08 74.267 227.08 74.7273C227.08 75.1932 227.151 75.6165 227.293 75.9972C227.438 76.375 227.651 76.6761 227.933 76.9006C228.217 77.1222 228.569 77.233 228.989 77.233ZM233.835 78V71.4545H234.806V72.4773H234.891C235.028 72.1278 235.248 71.8565 235.552 71.6634C235.856 71.4673 236.221 71.3693 236.647 71.3693C237.079 71.3693 237.438 71.4673 237.725 71.6634C238.015 71.8565 238.241 72.1278 238.403 72.4773H238.471C238.638 72.1392 238.89 71.8707 239.225 71.6719C239.56 71.4702 239.962 71.3693 240.431 71.3693C241.016 71.3693 241.495 71.5526 241.867 71.919C242.239 72.2827 242.425 72.8494 242.425 73.6193V78H241.42V73.6193C241.42 73.1364 241.288 72.7912 241.023 72.5838C240.759 72.3764 240.448 72.2727 240.09 72.2727C239.63 72.2727 239.273 72.4119 239.021 72.6903C238.768 72.9659 238.641 73.3153 238.641 73.7386V78H237.619V73.517C237.619 73.1449 237.498 72.8452 237.256 72.6179C237.015 72.3878 236.704 72.2727 236.323 72.2727C236.062 72.2727 235.817 72.3423 235.59 72.4815C235.366 72.6207 235.184 72.8139 235.045 73.0611C234.908 73.3054 234.84 73.5881 234.84 73.9091V78H233.835ZM247.009 78.1364C246.378 78.1364 245.834 77.9972 245.376 77.7188C244.922 77.4375 244.571 77.0455 244.324 76.5426C244.08 76.0369 243.957 75.4489 243.957 74.7784C243.957 74.108 244.08 73.517 244.324 73.0057C244.571 72.4915 244.915 72.0909 245.355 71.804C245.798 71.5142 246.315 71.3693 246.906 71.3693C247.247 71.3693 247.584 71.4261 247.916 71.5398C248.249 71.6534 248.551 71.8381 248.824 72.0938C249.097 72.3466 249.314 72.6818 249.476 73.0994C249.638 73.517 249.719 74.0312 249.719 74.642V75.0682H244.673V74.1989H248.696C248.696 73.8295 248.622 73.5 248.474 73.2102C248.33 72.9205 248.122 72.6918 247.852 72.5241C247.585 72.3565 247.27 72.2727 246.906 72.2727C246.506 72.2727 246.159 72.3722 245.866 72.571C245.577 72.767 245.354 73.0227 245.197 73.3381C245.041 73.6534 244.963 73.9915 244.963 74.3523V74.9318C244.963 75.4261 245.048 75.8452 245.219 76.1889C245.392 76.5298 245.632 76.7898 245.939 76.9688C246.246 77.1449 246.602 77.233 247.009 77.233C247.273 77.233 247.511 77.196 247.724 77.1222C247.94 77.0455 248.126 76.9318 248.283 76.7812C248.439 76.6278 248.56 76.4375 248.645 76.2102L249.616 76.483C249.514 76.8125 249.342 77.1023 249.101 77.3523C248.859 77.5994 248.561 77.7926 248.206 77.9318C247.851 78.0682 247.452 78.1364 247.009 78.1364ZM255.32 72.3H257.372V73.128H255.32V72.3ZM259.184 68.088H260.144V78.936H259.184V68.088ZM257.036 68.316H257.984V78.396H257.036V68.316ZM253.364 68.988C254.768 68.988 255.68 70.44 255.68 72.768C255.68 75.096 254.768 76.548 253.364 76.548C251.96 76.548 251.06 75.096 251.06 72.768C251.06 70.44 251.96 68.988 253.364 68.988ZM253.364 69.912C252.512 69.912 251.972 71.016 251.972 72.768C251.972 74.52 252.512 75.624 253.364 75.624C254.228 75.624 254.768 74.52 254.768 72.768C254.768 71.016 254.228 69.912 253.364 69.912ZM268.054 73.968H269.05V77.064H268.054V73.968ZM271.402 73.968H272.386V77.064H271.402V73.968ZM265.342 76.8H275.17V77.628H265.342V76.8ZM266.194 69.084H274.246V69.9H266.194V69.084ZM266.218 73.428H274.234V74.232H266.218V73.428ZM267.886 69.744H268.882V73.596H267.886V69.744ZM271.582 69.744H272.566V73.596H271.582V69.744ZM279.237 69.024H280.053V70.968C280.053 73.464 278.709 75.78 276.933 76.68L276.321 75.864C277.929 75.096 279.237 73.02 279.237 70.968V69.024ZM279.405 69.024H280.221V70.968C280.221 72.948 281.517 74.94 283.125 75.684L282.525 76.476C280.761 75.612 279.405 73.38 279.405 70.968V69.024ZM284.253 68.076H285.249V78.948H284.253V68.076ZM287.396 69.936H292.772V70.752H287.396V69.936ZM290.084 71.472C291.44 71.472 292.424 72.492 292.424 73.956C292.424 75.408 291.44 76.428 290.084 76.428C288.74 76.428 287.756 75.408 287.756 73.956C287.756 72.492 288.74 71.472 290.084 71.472ZM290.084 72.324C289.256 72.324 288.656 72.996 288.656 73.956C288.656 74.916 289.256 75.588 290.084 75.588C290.924 75.588 291.536 74.916 291.536 73.956C291.536 72.996 290.924 72.324 290.084 72.324ZM295.64 68.088H296.6V78.936H295.64V68.088ZM293.912 72.648H295.964V73.476H293.912V72.648ZM293.324 68.328H294.26V78.408H293.324V68.328ZM289.604 68.4H290.588V70.44H289.604V68.4ZM298.459 76.728H308.287V77.556H298.459V76.728ZM302.851 74.136H303.847V76.968H302.851V74.136ZM299.611 68.856H300.595V70.788H306.127V68.856H307.111V74.4H299.611V68.856ZM300.595 71.592V73.584H306.127V71.592H300.595ZM312.174 69.636H312.966V71.4C312.966 73.656 311.586 75.984 309.894 76.848L309.318 76.056C310.866 75.3 312.174 73.236 312.174 71.4V69.636ZM312.354 69.636H313.146V71.4C313.146 73.116 314.37 75.048 315.942 75.792L315.378 76.584C313.662 75.732 312.354 73.548 312.354 71.4V69.636ZM309.702 69.192H315.546V70.032H309.702V69.192ZM316.83 68.088H317.838V78.936H316.83V68.088ZM317.598 72.468H319.614V73.308H317.598V72.468Z" fill="#8D96A0"/>
<path d="M72.8 90H32C26.4772 90 22 94.4772 22 100V102C22 107.523 26.4772 112 32 112H72.8C78.3228 112 82.8 107.523 82.8 102V100C82.8 94.4772 78.3228 90 72.8 90Z" stroke="#A1A1AA" stroke-width="0.5"/>
<path d="M39.9504 96.2727V105H38.3567L34.5598 99.5071H34.4959V105H32.6507V96.2727H34.27L38.0371 101.761H38.1138V96.2727H39.9504ZM44.4238 105.128C43.7505 105.128 43.171 104.991 42.6852 104.719C42.2022 104.443 41.83 104.054 41.5687 103.551C41.3073 103.045 41.1766 102.447 41.1766 101.757C41.1766 101.084 41.3073 100.493 41.5687 99.9844C41.83 99.4759 42.1979 99.0795 42.6724 98.7955C43.1496 98.5114 43.7093 98.3693 44.3514 98.3693C44.7832 98.3693 45.1852 98.4389 45.5573 98.5781C45.9323 98.7145 46.259 98.9205 46.5374 99.196C46.8187 99.4716 47.0374 99.8182 47.1937 100.236C47.3499 100.651 47.4281 101.136 47.4281 101.693V102.192H41.9011V101.067H45.7192C45.7192 100.805 45.6624 100.574 45.5488 100.372C45.4352 100.17 45.2775 100.013 45.0758 99.8991C44.8769 99.7827 44.6454 99.7244 44.3812 99.7244C44.1056 99.7244 43.8613 99.7884 43.6482 99.9162C43.438 100.041 43.2732 100.21 43.1539 100.423C43.0346 100.634 42.9735 100.868 42.9707 101.126V102.196C42.9707 102.52 43.0303 102.8 43.1496 103.036C43.2718 103.271 43.4437 103.453 43.6653 103.581C43.8869 103.709 44.1496 103.773 44.4536 103.773C44.6553 103.773 44.84 103.744 45.0076 103.688C45.1752 103.631 45.3187 103.545 45.438 103.432C45.5573 103.318 45.6482 103.179 45.7107 103.014L47.3897 103.125C47.3045 103.528 47.1298 103.881 46.8656 104.182C46.6042 104.48 46.2661 104.713 45.8514 104.881C45.4394 105.045 44.9636 105.128 44.4238 105.128ZM50.0126 98.4545L51.2143 100.743L52.4458 98.4545H54.308L52.4117 101.727L54.3592 105H52.5055L51.2143 102.737L49.9444 105H48.0694L50.0126 101.727L48.1376 98.4545H50.0126ZM58.8677 98.4545V99.8182H54.9259V98.4545H58.8677ZM55.8208 96.8864H57.6362V102.989C57.6362 103.156 57.6617 103.287 57.7129 103.381C57.764 103.472 57.835 103.536 57.9259 103.572C58.0197 103.609 58.1276 103.628 58.2498 103.628C58.335 103.628 58.4202 103.621 58.5055 103.607C58.5907 103.589 58.656 103.577 58.7015 103.568L58.987 104.919C58.8961 104.947 58.7683 104.98 58.6035 105.017C58.4387 105.057 58.2384 105.081 58.0026 105.089C57.5651 105.107 57.1816 105.048 56.8521 104.915C56.5254 104.781 56.2711 104.574 56.0893 104.293C55.9075 104.011 55.818 103.656 55.8208 103.227V96.8864ZM61.1113 105.111C60.83 105.111 60.5886 105.011 60.3869 104.812C60.188 104.611 60.0886 104.369 60.0886 104.088C60.0886 103.81 60.188 103.571 60.3869 103.372C60.5886 103.173 60.83 103.074 61.1113 103.074C61.384 103.074 61.6227 103.173 61.8272 103.372C62.0317 103.571 62.134 103.81 62.134 104.088C62.134 104.276 62.0857 104.447 61.9891 104.604C61.8954 104.757 61.7718 104.881 61.6184 104.974C61.465 105.065 61.296 105.111 61.1113 105.111ZM63.6244 98.4545H65.4398V105.324C65.4398 105.83 65.3403 106.239 65.1415 106.551C64.9426 106.864 64.6571 107.092 64.2849 107.237C63.9156 107.382 63.4739 107.455 62.9597 107.455C62.8972 107.455 62.8375 107.453 62.7807 107.45C62.721 107.45 62.6585 107.449 62.5932 107.446V106.027C62.6415 106.03 62.6841 106.031 62.721 106.031C62.7551 106.034 62.792 106.036 62.8318 106.036C63.1244 106.036 63.329 105.973 63.4455 105.848C63.5648 105.726 63.6244 105.541 63.6244 105.294V98.4545ZM64.5278 97.6108C64.2608 97.6108 64.0307 97.5213 63.8375 97.3423C63.6443 97.1605 63.5477 96.9432 63.5477 96.6903C63.5477 96.4403 63.6443 96.2259 63.8375 96.0469C64.0307 95.8651 64.2608 95.7741 64.5278 95.7741C64.8006 95.7741 65.0321 95.8651 65.2224 96.0469C65.4156 96.2259 65.5122 96.4403 65.5122 96.6903C65.5122 96.9432 65.4156 97.1605 65.2224 97.3423C65.0321 97.5213 64.8006 97.6108 64.5278 97.6108ZM72.34 100.321L70.6781 100.423C70.6496 100.281 70.5886 100.153 70.4948 100.04C70.4011 99.9233 70.2775 99.831 70.1241 99.7628C69.9735 99.6918 69.7931 99.6562 69.5829 99.6562C69.3016 99.6562 69.0644 99.7159 68.8712 99.8352C68.6781 99.9517 68.5815 100.108 68.5815 100.304C68.5815 100.46 68.644 100.592 68.769 100.7C68.894 100.808 69.1085 100.895 69.4124 100.96L70.5971 101.199C71.2335 101.33 71.7079 101.54 72.0204 101.83C72.3329 102.119 72.4891 102.5 72.4891 102.972C72.4891 103.401 72.3627 103.777 72.1099 104.101C71.8599 104.425 71.5161 104.678 71.0786 104.859C70.644 105.038 70.1425 105.128 69.5744 105.128C68.7079 105.128 68.0175 104.947 67.5033 104.587C66.992 104.223 66.6923 103.729 66.6042 103.104L68.3897 103.01C68.4437 103.274 68.5744 103.476 68.7817 103.615C68.9891 103.751 69.2548 103.82 69.5786 103.82C69.8968 103.82 70.1525 103.759 70.3457 103.636C70.5417 103.511 70.6411 103.351 70.644 103.155C70.6411 102.99 70.5715 102.855 70.4352 102.75C70.2988 102.642 70.0886 102.56 69.8045 102.503L68.671 102.277C68.0317 102.149 67.5559 101.928 67.2434 101.612C66.9337 101.297 66.7789 100.895 66.7789 100.406C66.7789 99.9858 66.8925 99.6236 67.1198 99.3196C67.3499 99.0156 67.6724 98.7812 68.0871 98.6165C68.5048 98.4517 68.9934 98.3693 69.5531 98.3693C70.3798 98.3693 71.0303 98.544 71.5048 98.8935C71.982 99.2429 72.2604 99.7187 72.34 100.321Z" fill="#0EA5E9"/>
<path d="M144 90H96.8C91.2772 90 86.8 94.4772 86.8 100V102C86.8 107.523 91.2772 112 96.8 112H144C149.523 112 154 107.523 154 102V100C154 94.4772 149.523 90 144 90Z" stroke="#A1A1AA" stroke-width="0.5"/>
<path d="M97.3343 105V96.2727H100.777C101.437 96.2727 101.999 96.3906 102.465 96.6264C102.934 96.8594 103.29 97.1903 103.535 97.6193C103.782 98.0455 103.905 98.5469 103.905 99.1236C103.905 99.7031 103.78 100.202 103.53 100.619C103.28 101.034 102.918 101.352 102.444 101.574C101.972 101.795 101.401 101.906 100.731 101.906H98.4252V100.423H100.432C100.785 100.423 101.077 100.375 101.31 100.278C101.543 100.182 101.716 100.037 101.83 99.8438C101.947 99.6506 102.005 99.4105 102.005 99.1236C102.005 98.8338 101.947 98.5895 101.83 98.3906C101.716 98.1918 101.542 98.0412 101.306 97.9389C101.073 97.8338 100.779 97.7812 100.424 97.7812H99.1795V105H97.3343ZM102.047 101.028L104.216 105H102.179L100.057 101.028H102.047ZM108.053 105.128C107.379 105.128 106.8 104.991 106.314 104.719C105.831 104.443 105.459 104.054 105.198 103.551C104.936 103.045 104.806 102.447 104.806 101.757C104.806 101.084 104.936 100.493 105.198 99.9844C105.459 99.4759 105.827 99.0795 106.301 98.7955C106.779 98.5114 107.338 98.3693 107.98 98.3693C108.412 98.3693 108.814 98.4389 109.186 98.5781C109.561 98.7145 109.888 98.9205 110.166 99.196C110.448 99.4716 110.666 99.8182 110.823 100.236C110.979 100.651 111.057 101.136 111.057 101.693V102.192H105.53V101.067H109.348C109.348 100.805 109.291 100.574 109.178 100.372C109.064 100.17 108.906 100.013 108.705 99.8991C108.506 99.7827 108.274 99.7244 108.01 99.7244C107.735 99.7244 107.49 99.7884 107.277 99.9162C107.067 100.041 106.902 100.21 106.783 100.423C106.663 100.634 106.602 100.868 106.6 101.126V102.196C106.6 102.52 106.659 102.8 106.779 103.036C106.901 103.271 107.073 103.453 107.294 103.581C107.516 103.709 107.779 103.773 108.083 103.773C108.284 103.773 108.469 103.744 108.636 103.688C108.804 103.631 108.948 103.545 109.067 103.432C109.186 103.318 109.277 103.179 109.34 103.014L111.019 103.125C110.933 103.528 110.759 103.881 110.494 104.182C110.233 104.48 109.895 104.713 109.48 104.881C109.068 105.045 108.592 105.128 108.053 105.128ZM114.108 105.124C113.69 105.124 113.318 105.051 112.992 104.906C112.665 104.759 112.406 104.541 112.216 104.254C112.029 103.964 111.935 103.604 111.935 103.172C111.935 102.808 112.002 102.503 112.135 102.256C112.269 102.009 112.45 101.81 112.681 101.659C112.911 101.509 113.172 101.395 113.465 101.318C113.76 101.241 114.07 101.188 114.394 101.156C114.774 101.116 115.081 101.08 115.314 101.045C115.547 101.009 115.716 100.955 115.821 100.884C115.926 100.812 115.979 100.707 115.979 100.568V100.543C115.979 100.273 115.894 100.064 115.723 99.9162C115.556 99.7685 115.317 99.6946 115.007 99.6946C114.681 99.6946 114.421 99.767 114.227 99.9119C114.034 100.054 113.906 100.233 113.844 100.449L112.165 100.312C112.25 99.9148 112.418 99.571 112.668 99.2812C112.918 98.9886 113.24 98.7642 113.635 98.608C114.033 98.4489 114.493 98.3693 115.016 98.3693C115.379 98.3693 115.727 98.4119 116.06 98.4972C116.395 98.5824 116.692 98.7145 116.95 98.8935C117.212 99.0724 117.418 99.3026 117.568 99.5838C117.719 99.8622 117.794 100.196 117.794 100.585V105H116.073V104.092H116.021C115.916 104.297 115.776 104.477 115.6 104.634C115.423 104.787 115.212 104.908 114.965 104.996C114.717 105.081 114.432 105.124 114.108 105.124ZM114.628 103.871C114.895 103.871 115.131 103.818 115.335 103.713C115.54 103.605 115.7 103.46 115.817 103.278C115.933 103.097 115.992 102.891 115.992 102.661V101.966C115.935 102.003 115.857 102.037 115.757 102.068C115.661 102.097 115.551 102.124 115.429 102.149C115.307 102.172 115.185 102.193 115.063 102.213C114.94 102.23 114.83 102.246 114.73 102.26C114.517 102.291 114.331 102.341 114.172 102.409C114.013 102.477 113.889 102.57 113.801 102.686C113.713 102.8 113.669 102.942 113.669 103.112C113.669 103.359 113.759 103.548 113.938 103.679C114.119 103.807 114.35 103.871 114.628 103.871ZM121.614 105.107C121.117 105.107 120.667 104.979 120.264 104.723C119.863 104.464 119.545 104.085 119.309 103.585C119.076 103.082 118.96 102.466 118.96 101.736C118.96 100.986 119.08 100.362 119.322 99.8651C119.563 99.3651 119.884 98.9915 120.285 98.7443C120.688 98.4943 121.13 98.3693 121.61 98.3693C121.977 98.3693 122.282 98.4318 122.526 98.5568C122.774 98.679 122.972 98.8324 123.123 99.017C123.276 99.1989 123.393 99.3778 123.472 99.554H123.528V96.2727H125.339V105H123.549V103.952H123.472C123.387 104.134 123.266 104.314 123.11 104.493C122.957 104.669 122.757 104.815 122.509 104.932C122.265 105.048 121.967 105.107 121.614 105.107ZM122.19 103.662C122.482 103.662 122.73 103.582 122.931 103.423C123.136 103.261 123.292 103.036 123.4 102.746C123.511 102.456 123.566 102.116 123.566 101.727C123.566 101.338 123.512 101 123.404 100.713C123.296 100.426 123.14 100.205 122.936 100.048C122.731 99.892 122.482 99.8139 122.19 99.8139C121.891 99.8139 121.64 99.8949 121.436 100.057C121.231 100.219 121.076 100.443 120.971 100.73C120.866 101.017 120.813 101.349 120.813 101.727C120.813 102.108 120.866 102.445 120.971 102.737C121.079 103.027 121.234 103.254 121.436 103.419C121.64 103.581 121.891 103.662 122.19 103.662ZM126.831 105V98.4545H128.562V99.6094H128.638C128.775 99.2259 129.002 98.9233 129.32 98.7017C129.638 98.4801 130.019 98.3693 130.462 98.3693C130.911 98.3693 131.293 98.4815 131.608 98.706C131.924 98.9276 132.134 99.2287 132.239 99.6094H132.307C132.441 99.2344 132.682 98.9347 133.032 98.7102C133.384 98.483 133.8 98.3693 134.28 98.3693C134.891 98.3693 135.387 98.5639 135.768 98.9531C136.151 99.3395 136.343 99.8878 136.343 100.598V105H134.532V100.956C134.532 100.592 134.435 100.32 134.242 100.138C134.049 99.956 133.807 99.8651 133.518 99.8651C133.188 99.8651 132.931 99.9702 132.746 100.18C132.562 100.388 132.469 100.662 132.469 101.003V105H130.709V100.918C130.709 100.597 130.617 100.341 130.432 100.151C130.25 99.9602 130.01 99.8651 129.712 99.8651C129.51 99.8651 129.329 99.9162 129.167 100.018C129.008 100.118 128.881 100.259 128.787 100.44C128.694 100.619 128.647 100.83 128.647 101.071V105H126.831ZM140.76 105.128C140.086 105.128 139.507 104.991 139.021 104.719C138.538 104.443 138.166 104.054 137.905 103.551C137.643 103.045 137.513 102.447 137.513 101.757C137.513 101.084 137.643 100.493 137.905 99.9844C138.166 99.4759 138.534 99.0795 139.008 98.7955C139.486 98.5114 140.045 98.3693 140.687 98.3693C141.119 98.3693 141.521 98.4389 141.893 98.5781C142.268 98.7145 142.595 98.9205 142.873 99.196C143.155 99.4716 143.373 99.8182 143.53 100.236C143.686 100.651 143.764 101.136 143.764 101.693V102.192H138.237V101.067H142.055C142.055 100.805 141.998 100.574 141.885 100.372C141.771 100.17 141.613 100.013 141.412 99.8991C141.213 99.7827 140.981 99.7244 140.717 99.7244C140.442 99.7244 140.197 99.7884 139.984 99.9162C139.774 100.041 139.609 100.21 139.49 100.423C139.371 100.634 139.309 100.868 139.307 101.126V102.196C139.307 102.52 139.366 102.8 139.486 103.036C139.608 103.271 139.78 103.453 140.001 103.581C140.223 103.709 140.486 103.773 140.79 103.773C140.991 103.773 141.176 103.744 141.344 103.688C141.511 103.631 141.655 103.545 141.774 103.432C141.893 103.318 141.984 103.179 142.047 103.014L143.726 103.125C143.64 103.528 143.466 103.881 143.201 104.182C142.94 104.48 142.602 104.713 142.187 104.881C141.775 105.045 141.299 105.128 140.76 105.128Z" fill="#0EA5E9"/>
<path d="M240.8 90H168C162.477 90 158 94.4772 158 100V102C158 107.523 162.477 112 168 112H240.8C246.323 112 250.8 107.523 250.8 102V100C250.8 94.4772 246.323 90 240.8 90Z" stroke="#A1A1AA" stroke-width="0.5"/>
<path d="M170.815 99.0938C170.755 98.8864 170.671 98.7031 170.563 98.544C170.455 98.3821 170.323 98.2457 170.167 98.1349C170.013 98.0213 169.837 97.9347 169.638 97.875C169.442 97.8153 169.225 97.7855 168.986 97.7855C168.54 97.7855 168.148 97.8963 167.81 98.1179C167.475 98.3395 167.214 98.6619 167.026 99.0852C166.839 99.5057 166.745 100.02 166.745 100.628C166.745 101.236 166.837 101.753 167.022 102.179C167.207 102.605 167.468 102.93 167.806 103.155C168.144 103.376 168.543 103.487 169.004 103.487C169.421 103.487 169.778 103.413 170.073 103.266C170.371 103.115 170.599 102.903 170.755 102.631C170.914 102.358 170.994 102.036 170.994 101.663L171.369 101.719H169.119V100.33H172.771V101.429C172.771 102.196 172.609 102.855 172.285 103.406C171.961 103.955 171.515 104.378 170.947 104.676C170.379 104.972 169.728 105.119 168.995 105.119C168.177 105.119 167.458 104.939 166.839 104.578C166.219 104.214 165.736 103.699 165.39 103.031C165.046 102.361 164.874 101.565 164.874 100.645C164.874 99.9375 164.977 99.3068 165.181 98.7528C165.388 98.196 165.678 97.7244 166.05 97.3381C166.423 96.9517 166.856 96.6577 167.35 96.456C167.844 96.2543 168.38 96.1534 168.957 96.1534C169.451 96.1534 169.911 96.2259 170.337 96.3707C170.763 96.5128 171.141 96.7145 171.471 96.9759C171.803 97.2372 172.075 97.5483 172.285 97.9091C172.495 98.267 172.63 98.6619 172.69 99.0938H170.815ZM174.533 105V98.4545H176.348V105H174.533ZM175.445 97.6108C175.175 97.6108 174.943 97.5213 174.75 97.3423C174.56 97.1605 174.464 96.9432 174.464 96.6903C174.464 96.4403 174.56 96.2259 174.75 96.0469C174.943 95.8651 175.175 95.7741 175.445 95.7741C175.714 95.7741 175.945 95.8651 176.135 96.0469C176.328 96.2259 176.425 96.4403 176.425 96.6903C176.425 96.9432 176.328 97.1605 176.135 97.3423C175.945 97.5213 175.714 97.6108 175.445 97.6108ZM181.284 98.4545V99.8182H177.342V98.4545H181.284ZM178.237 96.8864H180.052V102.989C180.052 103.156 180.078 103.287 180.129 103.381C180.18 103.472 180.251 103.536 180.342 103.572C180.436 103.609 180.544 103.628 180.666 103.628C180.751 103.628 180.836 103.621 180.921 103.607C181.007 103.589 181.072 103.577 181.118 103.568L181.403 104.919C181.312 104.947 181.184 104.98 181.019 105.017C180.855 105.057 180.654 105.081 180.419 105.089C179.981 105.107 179.598 105.048 179.268 104.915C178.941 104.781 178.687 104.574 178.505 104.293C178.323 104.011 178.234 103.656 178.237 103.227V96.8864ZM184.422 101.216V105H182.607V96.2727H184.371V99.6094H184.448C184.595 99.223 184.834 98.9205 185.164 98.7017C185.493 98.4801 185.907 98.3693 186.404 98.3693C186.858 98.3693 187.255 98.4688 187.593 98.6676C187.934 98.8636 188.198 99.1463 188.385 99.5156C188.576 99.8821 188.669 100.321 188.667 100.832V105H186.851V101.156C186.854 100.753 186.752 100.439 186.544 100.214C186.34 99.9901 186.053 99.8778 185.684 99.8778C185.436 99.8778 185.218 99.9304 185.027 100.036C184.84 100.141 184.692 100.294 184.584 100.496C184.479 100.695 184.425 100.935 184.422 101.216ZM194.293 102.213V98.4545H196.108V105H194.365V103.811H194.297C194.149 104.195 193.903 104.503 193.56 104.736C193.219 104.969 192.803 105.085 192.311 105.085C191.874 105.085 191.489 104.986 191.156 104.787C190.824 104.588 190.564 104.305 190.376 103.939C190.192 103.572 190.098 103.134 190.095 102.622V98.4545H191.91V102.298C191.913 102.685 192.017 102.99 192.222 103.214C192.426 103.439 192.7 103.551 193.044 103.551C193.263 103.551 193.467 103.501 193.658 103.402C193.848 103.3 194.001 103.149 194.118 102.95C194.237 102.751 194.295 102.506 194.293 102.213ZM197.594 105V96.2727H199.409V99.554H199.465C199.544 99.3778 199.659 99.1989 199.81 99.017C199.963 98.8324 200.162 98.679 200.407 98.5568C200.654 98.4318 200.961 98.3693 201.327 98.3693C201.804 98.3693 202.245 98.4943 202.648 98.7443C203.051 98.9915 203.374 99.3651 203.615 99.8651C203.857 100.362 203.978 100.986 203.978 101.736C203.978 102.466 203.86 103.082 203.624 103.585C203.391 104.085 203.073 104.464 202.669 104.723C202.269 104.979 201.82 105.107 201.323 105.107C200.97 105.107 200.671 105.048 200.424 104.932C200.179 104.815 199.979 104.669 199.823 104.493C199.667 104.314 199.547 104.134 199.465 103.952H199.384V105H197.594ZM199.371 101.727C199.371 102.116 199.425 102.456 199.533 102.746C199.641 103.036 199.797 103.261 200.002 103.423C200.206 103.582 200.455 103.662 200.747 103.662C201.043 103.662 201.293 103.581 201.497 103.419C201.702 103.254 201.857 103.027 201.962 102.737C202.07 102.445 202.124 102.108 202.124 101.727C202.124 101.349 202.071 101.017 201.966 100.73C201.861 100.443 201.706 100.219 201.502 100.057C201.297 99.8949 201.046 99.8139 200.747 99.8139C200.452 99.8139 200.202 99.892 199.997 100.048C199.796 100.205 199.641 100.426 199.533 100.713C199.425 101 199.371 101.338 199.371 101.727ZM208 105V96.2727H211.495C212.137 96.2727 212.672 96.3679 213.101 96.5582C213.53 96.7486 213.853 97.0128 214.068 97.3509C214.284 97.6861 214.392 98.0724 214.392 98.5099C214.392 98.8509 214.324 99.1506 214.188 99.4091C214.051 99.6648 213.864 99.875 213.625 100.04C213.39 100.202 213.12 100.317 212.816 100.385V100.47C213.148 100.484 213.459 100.578 213.749 100.751C214.042 100.925 214.279 101.168 214.461 101.48C214.642 101.79 214.733 102.159 214.733 102.588C214.733 103.051 214.618 103.464 214.388 103.828C214.161 104.189 213.824 104.474 213.378 104.685C212.932 104.895 212.382 105 211.729 105H208ZM209.845 103.491H211.35C211.864 103.491 212.239 103.393 212.475 103.197C212.711 102.999 212.828 102.734 212.828 102.405C212.828 102.163 212.77 101.95 212.654 101.766C212.537 101.581 212.371 101.436 212.155 101.331C211.942 101.226 211.688 101.173 211.392 101.173H209.845V103.491ZM209.845 99.9247H211.213C211.466 99.9247 211.691 99.8807 211.887 99.7926C212.086 99.7017 212.242 99.5739 212.355 99.4091C212.472 99.2443 212.53 99.0469 212.53 98.8168C212.53 98.5014 212.418 98.2472 212.193 98.054C211.972 97.8608 211.657 97.7642 211.247 97.7642H209.845V99.9247ZM217.766 105.124C217.349 105.124 216.977 105.051 216.65 104.906C216.323 104.759 216.065 104.541 215.874 104.254C215.687 103.964 215.593 103.604 215.593 103.172C215.593 102.808 215.66 102.503 215.793 102.256C215.927 102.009 216.109 101.81 216.339 101.659C216.569 101.509 216.83 101.395 217.123 101.318C217.418 101.241 217.728 101.188 218.052 101.156C218.432 101.116 218.739 101.08 218.972 101.045C219.205 101.009 219.374 100.955 219.479 100.884C219.584 100.812 219.637 100.707 219.637 100.568V100.543C219.637 100.273 219.552 100.064 219.381 99.9162C219.214 99.7685 218.975 99.6946 218.665 99.6946C218.339 99.6946 218.079 99.767 217.886 99.9119C217.692 100.054 217.565 100.233 217.502 100.449L215.823 100.312C215.908 99.9148 216.076 99.571 216.326 99.2812C216.576 98.9886 216.898 98.7642 217.293 98.608C217.691 98.4489 218.151 98.3693 218.674 98.3693C219.038 98.3693 219.386 98.4119 219.718 98.4972C220.053 98.5824 220.35 98.7145 220.609 98.8935C220.87 99.0724 221.076 99.3026 221.227 99.5838C221.377 99.8622 221.452 100.196 221.452 100.585V105H219.731V104.092H219.68C219.575 104.297 219.434 104.477 219.258 104.634C219.082 104.787 218.87 104.908 218.623 104.996C218.376 105.081 218.09 105.124 217.766 105.124ZM218.286 103.871C218.553 103.871 218.789 103.818 218.994 103.713C219.198 103.605 219.359 103.46 219.475 103.278C219.592 103.097 219.65 102.891 219.65 102.661V101.966C219.593 102.003 219.515 102.037 219.415 102.068C219.319 102.097 219.209 102.124 219.087 102.149C218.965 102.172 218.843 102.193 218.721 102.213C218.599 102.23 218.488 102.246 218.388 102.26C218.175 102.291 217.989 102.341 217.83 102.409C217.671 102.477 217.548 102.57 217.459 102.686C217.371 102.8 217.327 102.942 217.327 103.112C217.327 103.359 217.417 103.548 217.596 103.679C217.778 103.807 218.008 103.871 218.286 103.871ZM225.273 105.107C224.776 105.107 224.325 104.979 223.922 104.723C223.521 104.464 223.203 104.085 222.967 103.585C222.734 103.082 222.618 102.466 222.618 101.736C222.618 100.986 222.739 100.362 222.98 99.8651C223.222 99.3651 223.543 98.9915 223.943 98.7443C224.347 98.4943 224.788 98.3693 225.268 98.3693C225.635 98.3693 225.94 98.4318 226.185 98.5568C226.432 98.679 226.631 98.8324 226.781 99.017C226.935 99.1989 227.051 99.3778 227.131 99.554H227.186V96.2727H228.997V105H227.207V103.952H227.131C227.045 104.134 226.925 104.314 226.768 104.493C226.615 104.669 226.415 104.815 226.168 104.932C225.923 105.048 225.625 105.107 225.273 105.107ZM225.848 103.662C226.141 103.662 226.388 103.582 226.589 103.423C226.794 103.261 226.95 103.036 227.058 102.746C227.169 102.456 227.224 102.116 227.224 101.727C227.224 101.338 227.17 101 227.062 100.713C226.955 100.426 226.798 100.205 226.594 100.048C226.389 99.892 226.141 99.8139 225.848 99.8139C225.55 99.8139 225.298 99.8949 225.094 100.057C224.889 100.219 224.734 100.443 224.629 100.73C224.524 101.017 224.472 101.349 224.472 101.727C224.472 102.108 224.524 102.445 224.629 102.737C224.737 103.027 224.892 103.254 225.094 103.419C225.298 103.581 225.55 103.662 225.848 103.662ZM233.439 107.591C232.85 107.591 232.346 107.51 231.926 107.348C231.508 107.189 231.176 106.972 230.929 106.696C230.681 106.42 230.521 106.111 230.447 105.767L232.126 105.541C232.177 105.672 232.258 105.794 232.369 105.908C232.48 106.021 232.626 106.112 232.808 106.18C232.993 106.251 233.217 106.287 233.481 106.287C233.876 106.287 234.201 106.19 234.457 105.997C234.716 105.807 234.845 105.487 234.845 105.038V103.841H234.768C234.689 104.023 234.569 104.195 234.41 104.357C234.251 104.518 234.046 104.651 233.796 104.753C233.546 104.855 233.248 104.906 232.902 104.906C232.41 104.906 231.963 104.793 231.559 104.565C231.159 104.335 230.839 103.984 230.6 103.513C230.365 103.038 230.247 102.439 230.247 101.714C230.247 100.973 230.368 100.354 230.609 99.8565C230.85 99.3594 231.171 98.9872 231.572 98.7401C231.975 98.4929 232.417 98.3693 232.897 98.3693C233.264 98.3693 233.571 98.4318 233.818 98.5568C234.065 98.679 234.264 98.8324 234.414 99.017C234.568 99.1989 234.686 99.3778 234.768 99.554H234.836V98.4545H236.639V105.064C236.639 105.621 236.502 106.087 236.23 106.462C235.957 106.837 235.579 107.118 235.096 107.305C234.616 107.496 234.064 107.591 233.439 107.591ZM233.477 103.543C233.769 103.543 234.017 103.47 234.218 103.325C234.423 103.178 234.579 102.967 234.687 102.695C234.798 102.419 234.853 102.089 234.853 101.706C234.853 101.322 234.799 100.99 234.691 100.709C234.583 100.425 234.427 100.205 234.223 100.048C234.018 99.892 233.769 99.8139 233.477 99.8139C233.179 99.8139 232.927 99.8949 232.723 100.057C232.518 100.216 232.363 100.437 232.258 100.722C232.153 101.006 232.1 101.334 232.1 101.706C232.1 102.084 232.153 102.411 232.258 102.686C232.366 102.959 232.521 103.17 232.723 103.321C232.927 103.469 233.179 103.543 233.477 103.543ZM241.066 105.128C240.393 105.128 239.814 104.991 239.328 104.719C238.845 104.443 238.473 104.054 238.211 103.551C237.95 103.045 237.819 102.447 237.819 101.757C237.819 101.084 237.95 100.493 238.211 99.9844C238.473 99.4759 238.841 99.0795 239.315 98.7955C239.792 98.5114 240.352 98.3693 240.994 98.3693C241.426 98.3693 241.828 98.4389 242.2 98.5781C242.575 98.7145 242.902 98.9205 243.18 99.196C243.461 99.4716 243.68 99.8182 243.836 100.236C243.993 100.651 244.071 101.136 244.071 101.693V102.192H238.544V101.067H242.362C242.362 100.805 242.305 100.574 242.191 100.372C242.078 100.17 241.92 100.013 241.718 99.8991C241.519 99.7827 241.288 99.7244 241.024 99.7244C240.748 99.7244 240.504 99.7884 240.291 99.9162C240.081 100.041 239.916 100.21 239.796 100.423C239.677 100.634 239.616 100.868 239.613 101.126V102.196C239.613 102.52 239.673 102.8 239.792 103.036C239.914 103.271 240.086 103.453 240.308 103.581C240.529 103.709 240.792 103.773 241.096 103.773C241.298 103.773 241.483 103.744 241.65 103.688C241.818 103.631 241.961 103.545 242.081 103.432C242.2 103.318 242.291 103.179 242.353 103.014L244.032 103.125C243.947 103.528 243.772 103.881 243.508 104.182C243.247 104.48 242.909 104.713 242.494 104.881C242.082 105.045 241.606 105.128 241.066 105.128Z" fill="#0EA5E9"/>
</g>
<defs>
<clipPath id="clip0_10_21">
<rect width="450" height="130" fill="white"/>
</clipPath>
</defs>
</svg>
